<?xml version="1.0" standalone="no"?>
<!DOCTYPE svg PUBLIC "-//W3C//DTD SVG 20010904//EN"
 "http://www.w3.org/TR/2001/REC-SVG-20010904/DTD/svg10.dtd">
<svg version="1.0" xmlns="http://www.w3.org/2000/svg"
 width="44.000000pt" height="45.000000pt" viewBox="0 0 44.000000 45.000000"
 preserveAspectRatio="xMidYMid meet">

<g transform="translate(0.000000,45.000000) scale(0.100000,-0.100000)"
fill="#000000" stroke="none">
<path d="M175 380 l-39 -40 42 -43 42 -42 42 42 42 43 -39 40 c-21 22 -42 40
-45 40 -3 0 -24 -18 -45 -40z"/>
<path d="M55 260 l-39 -40 42 -43 42 -42 42 42 42 43 -39 40 c-21 22 -42 40
-45 40 -3 0 -24 -18 -45 -40z"/>
<path d="M295 260 l-39 -40 42 -43 42 -42 42 42 42 43 -39 40 c-21 22 -42 40
-45 40 -3 0 -24 -18 -45 -40z"/>
<path d="M175 140 l-39 -40 42 -43 42 -42 42 42 42 43 -39 40 c-21 22 -42 40
-45 40 -3 0 -24 -18 -45 -40z"/>
</g>
</svg>
